<svg width="18" height="18" viewBox="0 0 18 18" fill="none" xmlns="http://www.w3.org/2000/svg">
<mask id="mask0_27_295" style="mask-type:alpha" maskUnits="userSpaceOnUse" x="0" y="0" width="18" height="18">
<rect width="18" height="18" fill="#D9D9D9"/>
</mask>
<g mask="url(#mask0_27_295)">
<path d="M12 8.25V4.5H13.5V8.25H12ZM8.25 13.425C7.8125 13.3 7.45312 13.0563 7.17188 12.6938C6.89062 12.3313 6.75 11.9125 6.75 11.4375V4.5H8.25V13.425ZM8.8125 16.5C7.5125 16.5 6.40625 16.0438 5.49375 15.1313C4.58125 14.2188 4.125 13.1125 4.125 11.8125V4.875C4.125 3.9375 4.45312 3.14062 5.10938 2.48438C5.76562 1.82812 6.5625 1.5 7.5 1.5C8.4375 1.5 9.23438 1.82812 9.89062 2.48438C10.5469 3.14062 10.875 3.9375 10.875 4.875V10.5H9.375V4.875C9.3625 4.35 9.17813 3.90625 8.82188 3.54375C8.46563 3.18125 8.025 3 7.5 3C6.975 3 6.53125 3.18125 6.16875 3.54375C5.80625 3.90625 5.625 4.35 5.625 4.875V11.8125C5.6125 12.7 5.91875 13.4531 6.54375 14.0719C7.16875 14.6906 7.925 15 8.8125 15C9.125 15 9.42188 14.9594 9.70312 14.8781C9.98438 14.7969 10.25 14.675 10.5 14.5125V16.1813C10.2375 16.2813 9.96562 16.3594 9.68437 16.4156C9.40312 16.4719 9.1125 16.5 8.8125 16.5ZM12 15.75V13.5H9.75V12H12V9.75H13.5V12H15.75V13.5H13.5V15.75H12Z" fill="#767676"/>
</g>
</svg>
