<svg width="244" height="68" viewBox="0 0 244 68" fill="none" xmlns="http://www.w3.org/2000/svg">
<g clip-path="url(#clip0_27_111)">
<path d="M235.959 0.0224691H46.2664C46.0769 0.00842592 45.8874 0 45.695 0H8.17397C3.6599 0 0 3.63438 0 8.11697V45.9185C0.0226269 45.8904 0.0452538 45.8651 0.0650523 45.8398V51.1257C0.0424254 51.1538 0.0226269 51.1847 0 51.2128V52.9092C0.0226269 52.8811 0.0452538 52.853 0.0650523 52.8277V56.0127C0.0424254 56.0071 0.0226269 55.9987 0 55.9931V57.198C0.0226269 57.2064 0.0424254 57.2148 0.0650523 57.2233V59.5095C0.0424254 59.5011 0.0226269 59.4898 0 59.4814V59.9476C0.0226269 59.9589 0.0424254 59.9729 0.0650523 59.9841V60.001C0.0650523 60.9868 0.246068 61.9333 0.576986 62.804C0.562844 62.7928 0.548702 62.7816 0.531732 62.7731C1.45944 65.2082 3.53828 67.0816 6.10926 67.7472C6.10926 67.7444 6.11492 67.7416 6.11775 67.736C6.75413 67.8961 7.4188 67.9832 8.10326 67.9832H13.5422C13.5422 67.9832 13.5479 67.9972 13.5507 68.0056H14.9903C14.9903 68.0056 14.9847 67.9916 14.9818 67.9832H18.4551C18.4551 67.9832 18.4607 67.9972 18.4636 68.0056H20.0022C20.0022 68.0056 20.0022 67.9916 20.0022 67.9832H23.2576C23.2576 67.9832 23.2576 67.9972 23.2576 68.0056H24.5021C24.5021 68.0056 24.5021 67.9916 24.5021 67.9832H27.7575C27.7575 67.9832 27.7575 67.9972 27.7575 68.0056H40.4937C40.4937 68.0056 40.4937 67.9916 40.4937 67.9832H43.7463C43.7463 67.9832 43.7463 67.9972 43.7463 68.0056H44.8154H45.6696H45.695C45.893 68.0056 46.091 67.9972 46.2862 67.9832H235.959C240.391 67.9832 244 64.4021 244 59.9982V8.00743C244 3.60629 240.394 0.0224691 235.959 0.0224691ZM2.32774 58.2316C3.01503 58.6051 3.68536 59.0236 4.33588 59.4674C5.80097 60.4672 6.96343 61.7648 7.92224 63.2534C8.00427 63.3686 8.04669 63.627 7.97881 63.714C7.65638 64.1185 7.28869 64.4836 6.88423 64.9189C5.63975 63.1888 4.17183 61.7311 2.37017 60.6638C2.34471 60.4448 2.32774 60.2229 2.32774 59.9954V58.2316ZM3.27807 62.085C4.41507 62.9978 5.3852 64.0651 6.07532 65.3599C4.36133 64.7167 3.03483 63.2899 2.5427 61.5205C2.79159 61.703 3.03766 61.8912 3.2809 62.0878L3.27807 62.085ZM7.77234 65.7166C8.16265 65.2419 8.55297 64.7645 8.94894 64.2898C9.31097 63.8516 9.35057 63.7505 9.08187 63.245C8.97157 63.0428 8.99419 62.9107 9.13278 62.7366C9.62492 62.1412 10.0973 61.5289 10.5809 60.9222C10.6686 60.8127 10.7817 60.7088 10.8949 60.588C10.9684 60.661 10.991 60.6751 11.0023 60.6975C11.585 62.3715 12.1563 64.0539 12.7446 65.7306H8.10609C7.99295 65.7306 7.88265 65.7194 7.77234 65.7138V65.7166ZM19.9682 65.7334C19.9654 65.5312 19.9626 65.329 19.9598 65.1296C19.9371 63.9162 19.8749 62.8405 19.7703 61.8463C19.626 60.5065 19.4393 59.1219 19.2583 57.785C19.2216 57.5041 19.182 57.2204 19.1452 56.9396C18.5965 57.4788 17.8894 57.8608 17.1229 57.9788L17.0607 57.99L16.8033 58.0209H16.7015C16.5997 58.4394 16.3875 59.0124 15.9152 59.5516C15.7738 59.7201 15.6267 59.8802 15.4825 60.0431C16.1924 61.9193 16.9136 63.8264 17.6264 65.7362H14.1503C13.3923 63.7112 12.6286 61.6918 11.8593 59.6696C11.7575 59.3999 11.7971 59.2174 11.9838 59.0236C12.4844 58.4984 12.985 57.9788 13.4602 57.4283C13.5677 57.3075 13.5563 57.08 13.6044 56.9031C13.4036 56.8806 13.2028 56.8328 12.9992 56.8357C12.9058 56.8441 12.7983 56.9424 12.7191 57.021C12.2496 57.4676 11.7462 57.8861 11.3219 58.3692C10.3942 59.4252 9.5033 60.5206 8.61519 61.6075C8.43983 61.8182 8.32953 61.8687 8.14851 61.6328C7.91376 61.3491 7.65921 61.0767 7.41314 60.8099C5.90845 59.2033 4.24254 57.8636 2.3334 56.9143V50.0107C3.65142 48.376 4.96943 46.7414 6.29876 45.1124C7.03414 44.2024 7.83174 43.3598 8.81883 42.6941C9.26006 42.3992 9.6136 42.3908 10.0775 42.6464C11.5114 43.4721 12.6145 44.6518 13.5535 45.9634C14.962 47.9435 15.6861 50.196 16 52.589C16.0877 53.2237 16.1839 53.8669 16.2999 54.4961C16.3225 54.6196 16.5233 54.7966 16.6138 54.7853C16.7496 54.7629 16.9362 54.6084 16.9702 54.4792C17.0183 54.2629 16.9871 54.0298 16.9617 53.8023C16.8259 52.7266 16.7326 51.6312 16.5233 50.5696C16.1726 48.7973 15.5249 47.1206 14.4897 45.6179C13.5479 44.2529 12.4618 43.0171 11.0815 42.0594C10.8326 41.8825 10.8383 41.7813 11.1296 41.6578C11.7603 41.4022 11.7547 41.3909 12.2242 41.86C12.3232 41.9527 12.4278 42.051 12.524 42.1493C13.7713 43.3626 15.0667 44.5282 16.2518 45.7977C18.1977 47.8873 19.8099 50.2241 21.3202 52.6339C21.702 53.2406 22.0047 53.8725 22.1008 54.5944C22.1659 55.0971 22.2536 55.5942 22.3214 56.097C22.5647 57.9029 22.8221 59.7033 23.0116 61.5149C23.136 62.7001 23.1954 63.8853 23.218 65.0762C23.2237 65.2981 23.2237 65.52 23.2293 65.7391H19.9739L19.9682 65.7334ZM32.3254 40.9416C32.3197 40.8826 32.4611 40.7478 32.4951 40.7562C33.0749 40.9696 33.7904 40.8376 34.209 41.4527C34.5767 42.0004 34.9812 42.5172 35.3347 43.0733C35.6261 43.5396 35.8665 44.0423 36.1238 44.5254C36.0871 44.5507 36.056 44.5787 36.022 44.5984C35.9485 44.5816 35.8778 44.5731 35.8042 44.5507C35.1056 44.3569 34.4183 44.1153 33.7084 43.9749C32.4753 43.7362 32.6563 43.7951 32.4017 44.7332C32.2942 45.1349 32.1783 45.5337 32.0651 45.9381C32.0227 45.9325 31.986 45.9297 31.9464 45.9241C31.935 45.7696 31.9152 45.6151 31.9209 45.4607C31.9633 43.9412 32.5007 42.4751 32.3254 40.9387V40.9416ZM44.8748 60.324C44.7786 59.4393 44.7419 58.5489 44.5722 57.6811C44.1338 55.451 43.6756 53.2209 43.1523 51.0077C42.4905 48.2356 41.3959 45.6236 40.027 43.1295C39.9648 43.0059 39.9054 42.8739 39.8375 42.7475C39.8629 42.7194 39.8856 42.6941 39.9139 42.6717C40.0298 42.725 40.1514 42.7672 40.2646 42.8318C41.3846 43.4665 42.3462 44.2895 43.1552 45.2865C45.118 47.7132 47.0809 50.1427 49.0155 52.5862C49.9432 53.7602 50.8172 54.9763 51.7081 56.1784C51.8382 56.3554 52.0306 56.5632 51.6346 56.6952C49.6943 57.3244 48.0115 58.4113 46.3851 59.6022C45.9213 59.942 45.4574 60.2959 44.9512 60.6835C44.9172 60.529 44.8918 60.4251 44.8748 60.324ZM40.3325 45.7443C41.1668 47.6345 41.7466 49.609 42.2077 51.6172C42.284 51.929 42.3321 52.2463 42.4113 52.6199C41.625 52.6199 40.9123 52.6283 40.2023 52.6087C40.1062 52.603 39.9591 52.4401 39.9308 52.3278C39.7979 51.8307 39.713 51.3167 39.5801 50.8195C38.9126 48.3873 38.0075 46.0392 36.8479 43.7979C36.4859 43.1042 36.0899 42.4301 35.6657 41.669C36.3699 41.8207 37.0035 41.9892 37.6483 42.0847C38.412 42.197 38.8645 42.6661 39.1785 43.3064C39.5688 44.1125 39.9732 44.9214 40.3353 45.7387L40.3325 45.7443ZM38.6298 52.8502C34.9331 52.926 31.2393 52.985 27.5426 53.1142C26.7082 53.1423 26.3066 52.9316 25.9983 52.1143C24.9773 49.4405 23.351 47.1093 21.5663 44.8849C21.1675 44.3821 20.7319 43.9103 20.319 43.4188C20.3416 43.3991 20.3614 43.3767 20.3897 43.3598C20.5396 43.4665 20.7036 43.5704 20.8479 43.6884C22.2734 44.8315 23.713 45.9662 25.1272 47.1234C25.393 47.3396 25.5316 47.3144 25.6702 47.0166C25.8088 46.7217 25.9898 46.4409 26.0973 46.1347C26.2302 45.7696 26.4169 45.7106 26.7846 45.8426C28.476 46.4746 30.173 47.07 31.8728 47.6907C32.0793 47.7666 32.1981 47.7553 32.2886 47.5306C32.5658 46.8537 32.8627 46.1853 33.1343 45.5028C33.3634 44.9354 33.3521 44.9298 33.946 45.0618C34.1072 45.0927 34.2656 45.1292 34.4268 45.1742C35.0632 45.3483 35.6968 45.5449 36.3416 45.6854C36.5962 45.7387 36.7433 45.8258 36.8423 46.0673C37.6992 48.1401 38.4148 50.255 38.9437 52.4317C39.0144 52.7294 38.955 52.8446 38.6241 52.8558L38.6298 52.8502ZM31.3552 31.9848C29.9212 32.1449 28.6287 31.6927 28.097 30.1648C28.0489 30.0244 28.08 29.853 28.08 29.6958C28.2101 29.7126 28.3458 29.7126 28.476 29.7491C29.7515 30.1311 31.03 30.1788 32.3197 29.8306C32.8147 29.6958 33.3068 29.5301 33.8725 29.3587C33.83 29.6592 33.8131 29.912 33.7537 30.1592C33.6179 30.7406 33.4171 31.3079 32.809 31.5467C32.3452 31.7376 31.8502 31.9286 31.3581 31.982L31.3552 31.9848ZM31.4825 28.6116C28.9539 28.8138 26.5612 28.1398 24.1938 27.3702C23.4273 27.123 23.054 26.581 22.839 25.8535C22.6269 25.1261 22.3639 24.4155 22.1461 23.6853C21.9481 23.0365 21.7162 22.3849 21.6115 21.7164C21.4927 20.8935 21.702 20.1351 22.5081 19.6998C23.2746 19.2841 24.0524 18.8572 24.8641 18.5455C26.5187 17.9107 28.244 17.5175 30.0004 17.2479C31.0413 17.0878 32.0963 16.9473 33.1541 17.1945C33.2927 17.2282 33.4935 17.2956 33.5302 17.3995C33.7311 17.9556 33.8923 18.5202 34.0903 19.1549C33.8046 19.1325 33.5896 19.1016 33.386 19.1016C32.9052 19.1072 32.4159 19.0791 31.9464 19.1465C31.3637 19.2392 30.8999 19.5622 30.6821 20.1267C30.6142 20.298 30.6821 20.5087 30.6849 20.7053C30.8603 20.6941 31.0328 20.6997 31.1968 20.6688C31.3439 20.6351 31.4768 20.5564 31.6211 20.4975C32.249 20.2728 32.8825 20.1267 33.567 20.2615C34.2204 20.3907 34.1694 20.3318 34.342 21.0508C34.7408 22.7219 35.0858 24.4015 35.4931 26.0754C35.5921 26.5192 35.5214 26.8562 35.1565 27.1511C34.0818 27.9993 32.8486 28.4937 31.4882 28.6032L31.4825 28.6116ZM33.0692 14.1836C31.1799 14.7819 29.2934 15.411 27.4634 16.1497C25.5062 16.9333 23.614 17.8658 21.6992 18.7449C21.0543 19.0398 20.4236 19.374 19.7901 19.6858C19.7674 19.6549 19.7476 19.6155 19.725 19.579C20.9242 18.8376 22.0895 18.0455 23.3198 17.3658C26.7959 15.456 30.4502 13.987 34.3476 13.1444C36.534 12.6726 38.7203 12.4563 40.949 12.6052C41.3931 12.6389 41.8513 12.7175 42.1709 13.0518C41.5458 12.9984 40.9405 12.872 40.3438 12.9226C39.0371 13.0293 37.7304 13.1781 36.4378 13.3972C35.3064 13.591 34.1666 13.8326 33.0692 14.1808V14.1836ZM31.4146 13.0152C30.4162 13.3439 29.4037 13.65 28.4222 14.0264C26.1171 14.9111 23.8997 15.9868 21.7501 17.1973C21.224 17.495 20.7036 17.8068 20.1662 18.1185C20.1125 18.0174 20.0701 17.9697 20.0587 17.9079C19.889 17.1552 19.7278 16.3997 19.5779 15.6469C19.329 14.3971 19.1028 13.1416 18.8426 11.889C18.7181 11.2851 18.7011 11.2907 19.2781 11.0689C19.4309 11.0099 19.5836 10.9453 19.7391 10.8835C22.2875 9.97348 24.8783 9.555 27.5681 10.201C29.1463 10.5773 30.4106 11.4705 31.5306 12.5855C31.7314 12.7849 31.7059 12.9169 31.4175 13.0096L31.4146 13.0152ZM19.2442 18.4472C19.2725 18.5483 19.1961 18.7336 19.1112 18.7926C18.1241 19.4583 17.1257 20.1099 16.133 20.7671C15.6748 21.0676 15.2053 21.3653 14.7188 21.6827C14.6764 21.5704 14.6509 21.5282 14.6396 21.4777C14.3087 20.0003 14.0966 18.5174 14.2069 17.0035C14.3511 15.0262 15.1883 13.445 16.8797 12.3468C17.1653 12.1586 17.4765 11.9929 17.8328 11.7822C17.9177 12.417 17.946 12.9759 18.0732 13.5096C18.4466 15.1554 18.8623 16.7985 19.2498 18.4443L19.2442 18.4472ZM16.0566 25.7524C16.2263 24.893 16.9673 24.497 17.7084 24.9604C19.0801 25.8226 20.1097 26.9264 20.1521 28.6903C20.1804 29.7463 20.2822 30.8136 20.4575 31.8556C20.6527 33.0043 21.0854 34.08 21.9651 34.903C23.2378 36.0995 24.7623 36.869 26.4226 37.3858C27.8198 37.8268 29.2707 37.9363 30.7217 37.9475C31.0356 37.9475 31.1431 38.043 31.1431 38.3604C31.1431 39.0064 31.1799 39.6468 31.2195 40.2928C31.2506 40.8685 31.3354 41.4527 31.3411 42.0257C31.3524 42.9469 31.31 43.8682 31.2873 44.795C31.2873 44.8624 31.2675 44.9326 31.2393 45.1264C31.0752 44.9607 30.9904 44.8568 30.8942 44.7669C30.2522 44.1968 29.695 43.4384 28.9455 43.093C27.2711 42.3234 25.5854 41.5791 24.0015 40.6326C22.74 39.8743 21.4814 39.1075 20.2228 38.3492C19.9032 38.161 19.8438 37.8942 19.8975 37.5431C19.9569 37.1078 19.9824 36.6584 20.005 36.2202C20.0701 34.507 19.7052 32.8499 19.3432 31.1984C19.2527 30.7939 19.1367 30.4513 19.6373 30.2238C19.8438 30.1311 19.8608 29.912 19.7335 29.6958C19.6034 29.4626 19.4563 29.5553 19.2583 29.5918C18.9472 29.6452 18.5795 29.6845 18.2967 29.5778C17.2728 29.1846 16.676 28.3448 16.2546 27.3842C16.0255 26.8675 15.9463 26.3198 16.0538 25.7552L16.0566 25.7524ZM20.2907 39.7423C22.4657 41.2252 24.8217 42.3712 27.223 43.4188C28.8182 44.1181 30.1447 45.0871 31.1374 46.5111C31.2082 46.6178 31.276 46.7217 31.3496 46.8285C31.2223 46.8509 31.1544 46.8228 31.0837 46.7976L26.1228 44.5507C25.8314 44.4187 25.6532 44.5085 25.5543 44.8203C25.4581 45.1264 25.3138 45.4185 25.1753 45.7584C22.3921 43.6659 19.6769 41.6213 16.9617 39.5766C16.9617 39.5288 16.9617 39.4754 16.9673 39.4221C17.4227 39.1918 17.8894 38.9671 18.3391 38.7227C18.588 38.5907 18.7803 38.6385 19.0009 38.8042C19.4167 39.1328 19.8523 39.4445 20.2907 39.7451V39.7423ZM18.1581 42.2111C19.1933 43.3907 20.2115 44.5872 21.1929 45.8174C22.8617 47.8986 24.0354 50.2691 25.0763 52.707C25.1894 52.971 25.1187 53.0552 24.8528 53.0552C24.2674 53.0552 23.6791 53.0524 23.0964 53.0665C22.8249 53.0777 22.692 52.9541 22.559 52.7322C21.9453 51.7015 21.3852 50.6258 20.6725 49.6652C19.5553 48.1626 18.3674 46.7049 17.1257 45.3006C15.9689 43.9889 14.7075 42.77 13.4885 41.5145C13.3329 41.3544 13.1519 41.2196 12.9624 41.0539C13.0699 40.9893 13.1349 40.9303 13.2169 40.9107C13.9523 40.6775 14.7075 40.4866 15.4287 40.2169C15.8558 40.054 16.1273 40.2001 16.4045 40.4753C16.99 41.0567 17.615 41.5988 18.1553 42.2139L18.1581 42.2111ZM40.4597 65.7362C40.4258 63.7505 40.3834 61.8575 40.3211 60.0038C40.307 59.4926 40.2815 58.9983 40.2476 58.518C39.3963 58.3018 38.6524 57.844 38.1065 57.1867C34.9897 57.2513 31.8898 57.3103 28.7927 57.3721C28.3543 57.9451 27.7575 58.3945 27.0363 58.6922C27.0872 59.0348 27.3107 60.5318 27.3107 60.5318C27.5765 62.3125 27.6444 64.0511 27.6953 65.7362H24.4342C24.389 64.1578 24.3211 62.5765 24.0892 61.0093C23.9081 59.7847 23.7271 58.5574 23.5263 57.3412C23.3877 56.493 23.2011 55.6588 23.054 54.8134C22.9804 54.3781 23.1134 54.2601 23.5489 54.2854C23.8176 54.2995 23.8233 54.4736 23.8629 54.673C23.9845 55.3808 24.8189 55.9313 25.526 55.7796C26.2585 55.6167 26.564 55.0803 26.3603 54.1478C26.9741 54.1478 27.5426 54.159 28.1111 54.1478C32.0453 54.0748 35.9824 53.9989 39.9167 53.9119C40.2759 53.9006 40.3805 54.0242 40.4003 54.3612C40.4116 54.6168 40.4597 54.9061 40.6011 55.0999C40.8642 55.4482 41.4949 55.5016 41.9842 55.2993C42.4707 55.0915 42.6234 54.8471 42.6121 54.2938V53.8023C42.6545 53.7967 42.7026 53.7911 42.7479 53.7855C42.7875 53.9006 42.8497 54.0242 42.8751 54.145C43.3135 56.0352 43.52 57.9563 43.5822 59.8943C43.6445 61.8407 43.6812 63.787 43.7123 65.7306H40.4626L40.4597 65.7362ZM241.734 59.9982C241.734 63.1607 239.144 65.7362 235.956 65.7362H48.7355C48.7977 65.6127 48.8571 65.4891 48.925 65.3655C49.7962 63.8741 51.1566 62.8967 52.6415 62.0682C52.9837 61.8772 53.3259 61.7452 53.6682 61.6721C53.7587 61.2845 53.8153 60.8913 53.8435 60.4841C53.7163 60.5066 53.5862 60.5403 53.4589 60.588C50.8342 61.6019 48.6959 63.127 47.6183 65.7334H45.9863C45.9948 65.6464 46.0061 65.5621 46.0259 65.475C46.2239 64.6044 46.5973 63.8292 47.2365 63.1888C48.3989 62.0176 49.7085 61.0374 51.1113 60.1807C51.9231 59.6836 52.7603 59.2258 53.7304 59.091C53.7757 59.0854 53.8237 59.0798 53.869 59.077V58.6613C53.275 58.7989 52.6811 58.9506 52.1098 59.1584C50.755 59.6724 49.5869 60.529 48.4499 61.4025C47.1827 62.3799 46.091 63.5258 45.3839 64.9835C45.3415 65.0706 45.2736 65.1408 45.2142 65.2223C45.1661 65.211 45.1152 65.2082 45.0671 65.197C45.0671 64.4049 45.0898 63.6073 45.0643 62.8124C45.0502 62.3968 45.1605 62.0625 45.4716 61.7985C46.3795 61.0149 47.2619 60.1864 48.2236 59.4645C49.7424 58.3214 51.4592 57.5659 53.3203 57.139C53.5466 57.0856 53.6823 57.1446 53.7841 57.3468C53.8124 57.4002 53.8407 57.4536 53.869 57.5125V56.2318C53.6993 56.1784 53.507 56.1784 53.275 56.2346C53.029 56.2936 52.8791 56.1981 52.7377 55.9931C52.4435 55.5633 52.1182 55.1533 51.8156 54.732C49.3295 51.297 46.6171 48.0418 43.8877 44.795C42.0493 42.6071 39.7215 41.3825 36.9667 40.8011C35.578 40.5034 34.2034 40.1327 32.8203 39.7675C31.9662 39.5429 31.969 39.5204 31.9775 38.6581C31.9775 38.5739 31.9888 38.4812 31.9775 38.3941C31.9322 38.0121 32.0934 37.8464 32.4922 37.824C32.9306 37.7987 33.3888 37.765 33.8074 37.647C34.8511 37.3521 35.8297 36.9252 36.3049 35.8748C36.5283 35.3776 36.6895 34.8159 36.7008 34.2767C36.7376 32.3162 36.7376 30.353 36.6754 28.3925C36.6443 27.4629 36.4887 26.5304 36.3105 25.6148C36.0249 24.1206 35.6798 22.6405 35.3404 21.1631C35.2527 20.7896 35.3913 20.6098 35.6911 20.4329C36.6414 19.8683 37.5776 19.2869 38.5138 18.6943C39.8771 17.8264 41.1866 16.8743 42.2897 15.6891C42.762 15.1695 43.2117 14.6246 43.3758 13.9281C43.4465 13.6135 43.4578 13.2989 43.5002 12.9282C43.3135 11.8244 41.5854 11.816 41.56 11.816C40.966 11.771 40.4908 11.7064 40.0128 11.6896C37.6625 11.6053 35.3658 11.9985 33.089 12.5322C32.8627 12.5855 32.71 12.5631 32.5516 12.3889C32.2688 12.08 31.969 11.7822 31.655 11.4958C30.0174 10.0128 28.097 9.15055 25.871 9.06067C22.3582 8.91743 19.1197 9.86676 16.1358 11.6699C14.5038 12.6501 13.4517 14.0629 13.1519 15.9615C12.8917 17.6326 13.1179 19.2729 13.5111 20.8935C13.7487 21.899 14.0626 22.8904 14.3539 23.8847C14.7414 25.1963 15.0723 26.5164 15.5447 27.7999C16.0227 29.0863 16.8146 30.1395 18.2656 30.5075C18.373 30.5327 18.5003 30.6956 18.5258 30.8192C18.9811 32.8274 19.0858 34.8721 19.0971 36.9224C19.0971 37.2791 19.0603 37.5656 18.5795 37.4588C18.5258 37.4476 18.4551 37.4813 18.3985 37.5066C17.8837 37.7818 17.3633 38.0402 16.8627 38.3492C16.3988 38.6329 16 38.9727 15.4259 39.1159C13.8364 39.526 12.2751 40.0344 10.7195 40.5455C9.20632 41.0511 7.79214 41.7645 6.73433 42.9919C5.25227 44.7248 3.76172 46.4549 2.32491 48.2244V43.152C2.7322 42.6717 3.14231 42.1886 3.54677 41.7167L4.25103 40.8994C5.56622 39.3715 7.34243 38.2565 9.68997 37.4785C11.2031 36.9758 12.8238 36.4449 14.5152 36.0068C14.5717 35.9731 14.6594 35.9141 14.7273 35.8692C14.8715 35.7765 15.0101 35.681 15.1572 35.5911C15.3722 35.4591 15.5871 35.3355 15.7992 35.2204C15.7653 34.4536 15.7059 33.6616 15.5899 32.8667C14.4133 32.1561 13.2424 30.9568 12.4872 28.9178C12.1026 27.8673 11.8112 26.8422 11.5312 25.8507C11.4322 25.4968 11.3332 25.1458 11.2286 24.7947L11.0363 24.1403C10.793 23.337 10.5498 22.5084 10.3405 21.6322C9.98412 20.1604 9.55421 17.9051 9.93604 15.4644C10.3716 12.6866 11.9272 10.4201 14.4473 8.9062C17.847 6.85308 21.456 5.80827 25.1724 5.80827C25.4496 5.80827 25.7268 5.8167 26.0068 5.82793C28.9228 5.9487 31.5447 7.03565 33.7989 9.06348C35.4252 8.73206 37.3372 8.44277 39.3567 8.44277C39.614 8.44277 39.8714 8.4512 40.1316 8.45682C40.5333 8.47086 40.9094 8.51018 41.2743 8.54389C41.4185 8.55793 41.5656 8.57478 41.7212 8.58882C43.9216 8.64219 46.2805 9.82743 46.7104 12.4002L46.7868 12.8495L46.733 13.2989C46.7217 13.3888 46.7132 13.4787 46.7076 13.5629C46.6821 13.855 46.6482 14.2201 46.552 14.6358L46.5407 14.6836C46.2013 16.0795 45.4207 17.0709 44.7023 17.8601C43.5257 19.124 42.1624 20.2166 40.2646 21.4243C39.8035 21.7164 39.3567 21.9945 38.9296 22.2613C39.1304 23.1544 39.3312 24.0813 39.5094 25.0081C39.7074 26.0136 39.8941 27.1174 39.928 28.2999C39.9874 30.148 39.9987 32.128 39.9534 34.3413C39.9308 35.504 39.5716 36.5348 39.2775 37.1948C39.1558 37.4617 39.0201 37.7116 38.873 37.9419C41.9531 38.8126 44.4194 40.3854 46.388 42.725C49.106 45.9662 51.5667 48.9237 53.8662 52.0441V8.11697C53.8662 5.8195 52.9017 3.74673 51.3574 2.26938H235.956C239.141 2.26938 241.734 4.8421 241.734 8.00743V59.9954V59.9982Z" fill="#523FF5"/>
<path d="M71.1362 12.8945H61.3189V55.0213H67.9854V37.8689H71.1362C74.4482 37.8689 76.9343 36.987 78.5917 35.2204C80.2491 33.4565 81.0778 30.867 81.0778 27.4573V23.3061C81.0778 19.8964 80.2491 17.3097 78.5917 15.543C76.9343 13.7792 74.451 12.8945 71.1362 12.8945ZM74.4086 27.8786C74.4086 29.3222 74.137 30.3474 73.5912 30.9484C73.0453 31.5495 72.2279 31.85 71.1362 31.85H67.9854V18.9106H71.1362C72.2279 18.9106 73.0453 19.2111 73.5912 19.8122C74.137 20.4132 74.4086 21.4384 74.4086 22.882V27.8758V27.8786Z" fill="black"/>
<path d="M104.528 49.9067V42.5032C104.528 40.0147 104.194 38.029 103.527 36.546C102.859 35.0631 101.719 34.0772 100.101 33.597V33.4762C103.012 32.3134 104.466 29.5441 104.466 25.171V22.5843C104.466 19.2954 103.676 16.8575 102.101 15.2734C100.526 13.6893 98.0197 12.8973 94.5861 12.8973H84.7066V55.0241H91.3731V36.9701H93.6754C95.2112 36.9701 96.2916 37.3521 96.9167 38.1133C97.5417 38.8772 97.8557 40.2197 97.8557 42.1465V49.8506C97.8557 51.415 97.8953 52.4991 97.9773 53.1002C98.0565 53.7012 98.2206 54.3444 98.461 55.0269H105.249C104.924 54.3051 104.723 53.572 104.644 52.8305C104.562 52.0891 104.522 51.1145 104.522 49.9124L104.528 49.9067ZM97.802 26.4967C97.802 28.1005 97.4682 29.2464 96.8007 29.9261C96.1332 30.6086 95.1348 30.9484 93.7998 30.9484H91.3759V18.9134H94.4051C95.576 18.9134 96.4359 19.256 96.9817 19.9357C97.5276 20.6182 97.7991 21.722 97.7991 23.2471V26.4967H97.802Z" fill="black"/>
<path d="M118.769 12.2934C115.496 12.2934 112.99 13.2175 111.254 15.0627C109.517 16.908 108.649 19.5172 108.649 22.8876V45.0337C108.649 48.4041 109.517 51.0133 111.254 52.8586C112.99 54.7039 115.496 55.6279 118.769 55.6279C122.041 55.6279 124.547 54.7067 126.284 52.8586C128.02 51.0133 128.888 48.4041 128.888 45.0337V22.8876C128.888 19.5172 128.02 16.9108 126.284 15.0627C124.547 13.2175 122.041 12.2934 118.769 12.2934ZM122.222 45.4522C122.222 48.2215 121.071 49.6034 118.769 49.6034C116.466 49.6034 115.315 48.2187 115.315 45.4522V22.4635C115.315 19.6942 116.466 18.3123 118.769 18.3123C121.071 18.3123 122.222 19.697 122.222 22.4635V45.4522Z" fill="black"/>
<path d="M133.374 55.0241H140.041V36.6668H148.647V30.6479H140.041V18.9134H151.012V12.8945H133.374V55.0241Z" fill="black"/>
<path d="M163.858 12.2934C160.586 12.2934 158.08 13.2175 156.343 15.0627C154.607 16.908 153.738 19.5172 153.738 22.8876V45.0337C153.738 48.4041 154.607 51.0133 156.343 52.8586C158.08 54.7039 160.586 55.6279 163.858 55.6279C167.131 55.6279 169.637 54.7067 171.373 52.8586C173.11 51.0133 173.978 48.4041 173.978 45.0337V22.8876C173.978 19.5172 173.11 16.9108 171.373 15.0627C169.637 13.2175 167.131 12.2934 163.858 12.2934ZM167.312 45.4522C167.312 48.2215 166.161 49.6034 163.858 49.6034C161.556 49.6034 160.405 48.2187 160.405 45.4522V22.4635C160.405 19.6942 161.556 18.3123 163.858 18.3123C166.161 18.3123 167.312 19.697 167.312 22.4635V45.4522Z" fill="black"/>
<path d="M198.282 49.9067V42.5032C198.282 40.0147 197.948 38.029 197.281 36.546C196.613 35.0631 195.471 34.0772 193.856 33.597V33.4762C196.766 32.3134 198.22 29.5441 198.22 25.171V22.5843C198.22 19.2954 197.431 16.8575 195.855 15.2734C194.28 13.6893 191.774 12.8973 188.34 12.8973H178.461V55.0241H185.127V36.9701H187.43C188.965 36.9701 190.046 37.3521 190.671 38.1133C191.296 38.8772 191.61 40.2197 191.61 42.1465V49.8506C191.61 51.415 191.65 52.4991 191.732 53.1002C191.811 53.7012 191.975 54.3444 192.215 55.0269H199.003C198.681 54.3051 198.477 53.572 198.398 52.8305C198.316 52.0891 198.276 51.1145 198.276 49.9124L198.282 49.9067ZM191.556 26.4967C191.556 28.1005 191.223 29.2464 190.555 29.9261C189.888 30.6086 188.889 30.9484 187.554 30.9484H185.13V18.9134H188.159C189.33 18.9134 190.19 19.256 190.736 19.9357C191.282 20.6182 191.553 21.722 191.553 23.2471V26.4967H191.556Z" fill="black"/>
<path d="M216.766 43.048H216.644L212.402 12.8945H202.887V55.0241H208.705V23.1263H208.826L213.674 55.0241H219.249L224.1 23.1263H224.218V55.0241H230.523V12.8945H221.008L216.766 43.048Z" fill="black"/>
<path d="M10.8892 47.8255C10.448 47.2048 10.0152 46.6993 9.574 46.2864C9.33925 46.5308 9.09601 46.8116 8.83297 47.1346C6.74847 49.6989 5.0062 51.8559 3.41949 53.8332C5.09388 54.6168 6.67493 55.6813 8.18245 57.0295C8.40589 56.7654 8.63216 56.5014 8.85843 56.2458C9.27985 55.7656 9.71259 55.3723 10.0888 55.0297C10.216 54.9117 10.3461 54.7994 10.4706 54.6786L10.4961 54.6533C10.7619 54.4062 11.5425 53.6787 12.821 53.6057H12.8521C12.8238 53.4063 12.7983 53.2125 12.7729 53.0243C12.49 50.9094 11.8735 49.213 10.8892 47.8283V47.8255Z" fill="#523FF5"/>
<path d="M31.3835 23.0702C31.1742 22.5141 30.9451 21.9692 30.716 21.4187C30.6906 21.3485 30.6199 21.2951 30.5265 21.1856C30.3257 21.6265 30.4106 22.0197 30.5124 22.3849C30.832 23.5252 31.3043 24.5868 32.2037 25.4238C32.7128 25.8929 32.6534 26.1091 32.0538 26.4405C31.4768 26.7551 30.8603 26.845 30.2126 26.845C30.074 26.8422 29.8307 26.9461 29.8138 27.0388C29.7685 27.2859 29.9637 27.3758 30.1984 27.3955C30.9225 27.4517 31.6607 27.5163 32.3169 27.123C32.5941 26.9573 32.8486 26.7214 33.0353 26.4658C33.4001 25.9659 33.3605 25.5502 32.9335 25.1092C32.3367 24.4885 31.689 23.9072 31.3807 23.0702H31.3835Z" fill="#523FF5"/>
<path d="M33.123 21.2586C32.7836 21.208 32.4102 21.2137 32.068 21.2895C31.6805 21.371 31.5278 21.7192 31.5051 22.2164C31.4797 22.6629 31.8191 22.7949 32.1132 22.9382C32.4017 23.0786 32.8769 22.9213 33.089 22.6714C33.2389 22.4888 33.123 21.9158 32.9193 21.7951C32.8543 21.7529 32.809 21.6827 32.7157 21.5844C33.1908 21.5086 33.4001 21.7361 33.5359 22.1068C33.6886 21.7052 33.5274 21.326 33.123 21.2558V21.2586Z" fill="#523FF5"/>
<path d="M27.5256 19.8571C27.0476 19.6492 26.5696 19.7756 26.1001 19.8824C25.2149 20.0818 24.3918 20.402 23.8431 21.1772C23.5489 21.5984 23.5885 22.0001 23.9675 22.3315C24.174 22.1546 24.3663 21.958 24.5954 21.7979C25.2092 21.3709 25.9021 21.194 26.6432 21.1659C26.8977 21.1547 27.1523 21.1434 27.4012 21.121C27.7123 21.0929 27.9555 20.9721 27.9668 20.621C27.9782 20.2812 27.865 20.0003 27.5256 19.8571Z" fill="#523FF5"/>
<path d="M25.5033 22.5478C25.3025 22.6854 25.1639 22.8343 25.2912 23.1151C25.4128 23.3819 25.4439 23.7021 25.5995 23.9465C25.8088 24.2723 26.2019 24.2807 26.4933 24.0195C26.6517 23.8791 26.8157 23.7302 26.9317 23.5561C26.9769 23.4859 26.9062 23.337 26.8864 23.2218C26.8638 23.0758 26.8412 22.9241 26.8185 22.7809C26.9713 22.8034 27.1353 22.8034 27.2824 22.8539C27.4295 22.9017 27.5596 23 27.6981 23.0758C27.7151 23.0533 27.7349 23.0365 27.7547 23.014C27.6642 22.9017 27.5907 22.7725 27.486 22.6798C27.1183 22.3371 25.9078 22.2641 25.5005 22.5534L25.5033 22.5478Z" fill="#523FF5"/>
</g>
<defs>
<clipPath id="clip0_27_111">
<rect width="244" height="68" fill="white"/>
</clipPath>
</defs>
</svg>
